DataRate=2000.000000
DataType=double
version=3
OpenSimVersion=4.3-2021-08-27-4bc7ad9
endheader
time	f1_1	f1_2	f1_3	p1_1	p1_2	p1_3	m1_1	m1_2	m1_3	f2_1	f2_2	f2_3	p2_1	p2_2	p2_3	m2_1	m2_2	m2_3	f3_1	f3_2	f3_3	p3_1	p3_2	p3_3	m3_1	m3_2	m3_3	f4_1	f4_2	f4_3	p4_1	p4_2	p4_3	m4_1	m4_2	m4_3
3.465	-0	0	0	-300	2252	0	0	0	0	-16.14710235595703	-20.7878475189209	363.8564147949219	-300	1351	0	-89480.1015625	26369.48046875	-18504.052734375	3.247663451845381	17.41731848607611	408.4420471191406	-300	450.0000000000007	0	117351.990544529	37586.79809836841	11043.1650390625	-0	0	0	305	450.0000000000007	0	0	0	0
3.4655	-0	0	0	-300	2252	0	0	0	0	-15.94231414794922	-20.85651397705078	364.1285400390625	-300	1351	0	-89411.2734375	26457.59375	-18440.796875	3.459719849513762	17.43386665208367	409.6257934570312	-300	450.0000000000007	0	117538.3811716046	37539.3137315158	11078.708984375	-0	0	0	305	450.0000000000007	0	0	0	0
3.466	-0	0	0	-300	2252	0	0	0	0	-15.33693408966064	-20.77465057373047	363.8041687011719	-300	1351	0	-89494.8125	26204.361328125	-18537.404296875	3.477747161992299	17.27657333316952	409.9039916992188	-300	450.0000000000007	0	117621.6780527298	37399.18482890682	11101.8193359375	-0	0	0	305	450.0000000000007	0	0	0	0
3.4665	-0	0	0	-300	2252	0	0	0	0	-15.65279293060303	-20.60228538513184	363.2022094726562	-300	1351	0	-89587.3984375	26431.763671875	-18533.0234375	3.512390325981697	17.48769394015257	409.8330688476562	-300	450.0000000000007	0	117580.6936767793	37420.93092086534	10995.2529296875	-0	0	0	305	450.0000000000007	0	0	0	0
3.467	-0	0	0	-300	2252	0	0	0	0	-15.91307735443115	-20.92519378662109	364.5107421875	-300	1351	0	-90048.796875	26523.146484375	-18456.65625	3.352996066463986	17.38009086006511	409.4839782714844	-300	450.0000000000007	0	117668.3342968215	37534.35279969623	10972.1552734375	-0	0	0	305	450.0000000000007	0	0	0	0
3.4675	-0	0	0	-300	2252	0	0	0	0	-16.20274925231934	-20.93828964233398	363.4221801757812	-300	1351	0	-89743.09375	26482.12890625	-18501.8046875	3.300303905311343	17.06532492758608	409.1348266601562	-300	450.0000000000007	0	117938.5764831961	37560.09890525889	11036.5703125	-0	0	0	305	450.0000000000007	0	0	0	0
3.468	-0	0	0	-300	2252	0	0	0	0	-15.79026031494141	-21.11085319519043	363.74609375	-300	1351	0	-89628.3125	26452.83984375	-18495.134765625	3.389007520770319	17.45185485394879	408.9273986816406	-300	450.0000000000007	0	117697.6702364298	37486.11842597854	10930.427734375	-0	0	0	305	450.0000000000007	0	0	0	0
3.4685	-0	0	0	-300	2252	0	0	0	0	-15.83115577697754	-20.76738357543945	364.9158325195312	-300	1351	0	-89820.640625	26549.916015625	-18512.544921875	3.459719854099269	17.32896247727898	409.4889221191406	-300	450.0000000000007	0	117874.9905440219	37598.39968372946	10959.587890625	-0	0	0	305	450.0000000000007	0	0	0	0
3.469	-0	0	0	-300	2252	0	0	0	0	-15.94824123382568	-20.8082275390625	365.0262145996094	-300	1351	0	-90156	26474.505859375	-18634.439453125	3.459719853369506	17.34565749986199	410.3191528320312	-300	450.0000000000007	0	117798.0139774765	37690.94655536471	10906.689453125	-0	0	0	305	450.0000000000007	0	0	0	0
3.4695	-0	0	0	-300	2252	0	0	0	0	-15.98163604736328	-21.02730369567871	364.5625915527344	-300	1351	0	-90080.1796875	26617.904296875	-18556.0546875	3.549603186958364	17.20599762219912	409.2056884765625	-300	450.0000000000007	0	117854.6311636358	37721.61843283952	10989.5625	-0	0	0	305	450.0000000000007	0	0	0	0
3.47	-0	0	0	-300	2252	0	0	0	0	-16.24382019042969	-21.17972183227539	365.3200988769531	-300	1351	0	-90141.28125	26523.44921875	-18470.30859375	3.831396053749641	17.48769395409675	409.2056884765625	-300	450.0000000000007	0	117765.7795967647	37821.61842895571	11006.6953125	-0	0	0	305	450.0000000000007	0	0	0	0
3.4705	-0	0	0	-300	2252	0	0	0	0	-15.82575130462646	-20.7061824798584	367.0348205566406	-300	1351	0	-90113.9921875	26655.720703125	-18533.23046875	3.656203698421726	17.4698106456576	409.3470764160156	-300	450.0000000000007	0	117921.9983509128	37726.71999828424	10888.5400390625	-0	0	0	305	450.0000000000007	0	0	0	0
3.471	-0	0	0	-300	2252	0	0	0	0	-15.48708629608154	-20.49999237060547	367.1455078125	-300	1351	0	-90163.6484375	26876.236328125	-18429.40234375	4.062740523739733	17.29211443540055	409.9039916992188	-300	450.0000000000007	0	117688.6077279005	37681.24733183241	10888.2060546875	-0	0	0	305	450.0000000000007	0	0	0	0
3.4715	-0	0	0	-300	2252	0	0	0	0	-15.96868133544922	-20.54076385498047	366.7623291015625	-300	1351	0	-90343.125	26909.751953125	-18411.203125	3.884298296986465	16.99452417186328	409.8333435058594	-300	450.0000000000007	0	117619.4514739263	37772.1652975595	10900.2607421875	-0	0	0	305	450.0000000000007	0	0	0	0
3.472	-0	0	0	-300	2252	0	0	0	0	-16.00947380065918	-20.75976753234863	367.1456298828125	-300	1351	0	-90236.6015625	26789.080078125	-18514.98046875	3.567362497765144	17.48769394255548	409.4842529296875	-300	450.0000000000007	0	117686.5217876846	37743.38014424124	10935.9384765625	-0	0	0	305	450.0000000000007	0	0	0	0
3.4725	-0	0	0	-300	2252	0	0	0	0	-16.0043773651123	-20.89217758178711	366.6814880371094	-300	1351	0	-90223.0546875	26848.021484375	-18586.931640625	3.991984562096642	17.36271303460263	409.2056884765625	-300	450.0000000000007	0	117837.4046012077	37719.97390083653	10906.265625	-0	0	0	305	450.0000000000007	0	0	0	0
3.473	-0	0	0	-300	2252	0	0	0	0	-15.64492130279541	-20.47195434570312	366.873291015625	-300	1351	0	-90271.71875	26912.576171875	-18643.328125	4.045762279140464	16.85159510177266	409.7701110839844	-300	450.0000000000007	0	117796.2092878166	37740.36061778582	10971.103515625	-0	0	0	305	450.0000000000007	0	0	0	0
3.4735	-0	0	0	-300	2252	0	0	0	0	-16.139404296875	-20.65789413452148	366.6007690429688	-300	1351	0	-90224.703125	27010.76953125	-18544.158203125	4.240195492941376	16.81680697855774	411.9989013671875	-300	450.0000000000007	0	117689.8499092536	37821.87233188671	10911.330078125	-0	0	0	305	450.0000000000007	0	0	0	0
3.474	-0	0	0	-300	2252	0	0	0	0	-16.29244422912598	-20.69093894958496	366.6007690429688	-300	1351	0	-90413.53125	26846.42578125	-18555.94921875	4.151480408773182	16.99345797565644	411.5755920410156	-300	450.0000000000007	0	117528.6155340342	37826.89185608894	10745.4345703125	-0	0	0	305	450.0000000000007	0	0	0	0
3.4745	-0	0	0	-300	2252	0	0	0	0	-15.87947082519531	-20.95335006713867	366.6007690429688	-300	1351	0	-90517.546875	26963.58203125	-18469.9609375	4.116532054392858	17.11656779163368	409.762939453125	-300	450.0000000000007	0	117732.1624063618	37888.02858373625	10710.7275390625	-0	0	0	305	450.0000000000007	0	0	0	0
3.475	-0	0	0	-300	2252	0	0	0	0	-15.83873653411865	-20.6986026763916	366.681396484375	-300	1351	0	-90404.4453125	26865.185546875	-18560	4.204383581047309	17.06391734381364	409.4876708984375	-300	450.0000000000007	0	117873.7795854651	38080.12233992653	10917.4287109375	-0	0	0	305	450.0000000000007	0	0	0	0
3.4755	-0	0	0	-300	2252	0	0	0	0	-15.72140979766846	-20.76738357543945	366.712158203125	-300	1351	0	-90375.484375	27034.873046875	-18540.001953125	4.06359979430906	17.06310671449084	410.1795043945312	-300	450.0000000000007	0	117821.5217797472	37924.96608764227	10805.142578125	-0	0	0	305	450.0000000000007	0	0	0	0
3.476	-0	0	0	-300	2252	0	0	0	0	-15.72920322418213	-20.66571235656738	366.3778686523438	-300	1351	0	-90831.9296875	27212.19140625	-18485.5625	4.275241590444605	16.8880292853875	408.8595886230469	-300	450.0000000000007	0	117797.5920947516	37867.67311784627	10834.6103515625	-0	0	0	305	450.0000000000007	0	0	0	0
3.4765	-0	0	0	-300	2252	0	0	0	0	-15.56331920623779	-20.44369316101074	368.0134887695312	-300	1351	0	-90898.6015625	27216.634765625	-18537.150390625	3.991984570583165	17.16856401726864	410.1827697753906	-300	450.0000000000007	0	117801.2795854492	38080.48561800746	10852.5791015625	-0	0	0	305	450.0000000000007	0	0	0	0
3.477	-0	0	0	-300	2252	0	0	0	0	-15.68071174621582	-20.77523612976074	367.7719421386719	-300	1351	0	-90642.3046875	26881.830078125	-18573.35546875	3.991984589792605	16.72910326287411	410.1855163574219	-300	450.0000000000007	0	117895.1780229699	38080.01296586189	10834.765625	-0	0	0	305	450.0000000000007	0	0	0	0
3.4775	-0	0	0	-300	2252	0	0	0	0	-15.71349239349365	-20.56092834472656	366.9539794921875	-300	1351	0	-90562.125	27125.05859375	-18571.689453125	3.9562348974838	17.15154283650676	410.8081359863281	-300	450.0000000000007	0	117787.4592799863	37919.49733615335	10840.6494140625	-0	0	0	305	450.0000000000007	0	0	0	0
3.478	-0	0	0	-300	2252	0	0	0	0	-15.91562938690186	-20.70646858215332	367.1953430175781	-300	1351	0	-90580.1015625	27208.97265625	-18460.447265625	3.778827881191146	16.92280976600791	408.9972229003906	-300	450.0000000000007	0	117852.3655244522	38046.10280774049	10763.6845703125	-0	0	0	305	450.0000000000007	0	0	0	0
3.4785	-0	0	0	-300	2252	0	0	0	0	-15.49436569213867	-20.56088638305664	368.0134887695312	-300	1351	0	-90749.34375	27287.962890625	-18578.328125	3.762163848437832	17.02771584743282	409.5548706054688	-300	450.0000000000007	0	117779.7092713809	38116.36452331459	10757.9501953125	-0	0	0	305	450.0000000000007	0	0	0	0
3.479	-0	0	0	-300	2252	0	0	0	0	-15.6198148727417	-20.76738357543945	367.8526916503906	-300	1351	0	-90703.2890625	27273.888671875	-18489.62890625	4.204557645138919	16.64002627631637	409.3440551757812	-300	450.0000000000007	0	117810.4124009979	38010.73952465667	10810.701171875	-0	0	0	305	450.0000000000007	0	0	0	0
3.4795	-0	0	0	-300	2252	0	0	0	0	-15.46601581573486	-20.7268180847168	367.2267761230469	-300	1351	0	-90810.9765625	27105.046875	-18601.0703125	4.027676323317584	16.83442324124089	408.7181091308594	-300	450.0000000000007	0	117716.0373995555	38043.7395205314	10751.7294921875	-0	0	0	305	450.0000000000007	0	0	0	0
3.48	-0	0	0	-300	2252	0	0	0	0	-15.79829406738281	-20.62967491149902	367.0343017578125	-300	1351	0	-90694.9921875	27445.75	-18496.18359375	4.187244626178487	16.99280375663869	409.4144592285156	-300	450.0000000000007	0	118094.0999024773	37976.89578705704	10775.189453125	-0	0	0	305	450.0000000000007	0	0	0	0
3.4805	-0	0	0	-300	2252	0	0	0	0	-15.60377597808838	-20.74711418151855	367.4677429199219	-300	1351	0	-90842.9296875	27725.5625	-18683.59375	4.275948267010159	16.79887408827484	408.9969177246094	-300	450.0000000000007	0	117832.2952101147	38088.13796311319	10680.279296875	-0	0	0	305	450.0000000000007	0	0	0	0
3.481	-0	0	0	-300	2252	0	0	0	0	-15.75779342651367	-20.59720802307129	368.3346252441406	-300	1351	0	-90751.6015625	27602.771484375	-18632.986328125	4.275531509800663	16.83395022961404	409.41455078125	-300	450.0000000000007	0	117716.076462649	38030.16139553311	10716.0498046875	-0	0	0	305	450.0000000000007	0	0	0	0
3.4815	-0	0	0	-300	2252	0	0	0	0	-15.38475799560547	-20.42301750183105	369.345947265625	-300	1351	0	-90698.75	27510.544921875	-18444.0234375	4.045443281247299	16.71054094831633	408.8565673828125	-300	450.0000000000007	0	117827.3264559908	38182.481712896	10828.61328125	-0	0	0	305	450.0000000000007	0	0	0	0
3.482	-0	0	0	-300	2252	0	0	0	0	-15.6037425994873	-20.76738357543945	368.8322143554688	-300	1351	0	-90942.546875	27724.462890625	-18614.484375	4.29376385613966	16.81661052399011	408.7864074707031	-300	450.0000000000007	0	117701.3967690905	38168.76295739144	10751.65625	-0	0	0	305	450.0000000000007	0	0	0	0
